<?xml version="1.0" encoding="UTF-8"?><svg version="1.1" viewBox="0 0 64 64" xmlns="http://www.w3.org/2000/svg" xmlns:xlink="http://www.w3.org/1999/xlink"><!--Generated by IJSVG (https://github.com/iconjar/IJSVG)--><path d="M51,23c0,-10.3207 -7.0366,-17 -19,-17c-11.9634,0 -19,6.6793 -19,17c0,6.3377 3,8.5862 3,10c0,1.4138 -1,2.9032 -1,4c0,1.9265 0.9964,2.8436 7.5772,3.9312l5.51272e-09,9.56724e-10c0.242078,0.0420123 0.420263,0.249943 0.4247,0.4956c0.0516,5.562 1.2011,6.5732 8.9981,6.5732c7.797,0 8.9467,-1.0112 8.9983,-6.5732l-1.2712e-08,7.27421e-07c0.0042919,-0.245607 0.182378,-0.45357 0.424399,-0.495601c6.581,-1.0876 7.5773,-2.0047 7.5773,-3.9312c0,-1.0968 -1,-2.5862 -1,-4c0,-1.4138 3,-3.6623 3,-10Zm-28.5,12c-2.8781,0 -3.5,-3.3333 -3.5,-5.5c0,-2.1667 2.9367,-3.5 6.5,-3.5c2.8781,0 3.5,3.3333 3.5,5.5c0,2.1667 -2.9366,3.5 -6.5,3.5Zm11.2778,8c-1.1216,0 -0.9966,-2 -1.7779,-2c-0.7813,0 -0.6561,2 -1.7777,2c-0.6909,0 -1.2222,-0.5 -1.2222,-1.6677c0,-2.0198 1.2084,-6.3323 3,-6.3323c1.7916,0 3,4.3125 3,6.3323c0,1.1677 -0.5313,1.6677 -1.2222,1.6677Zm7.7222,-8c-3.5633,0 -6.5,-1.3333 -6.5,-3.5c0,-2.1667 0.6218,-5.5 3.5,-5.5c3.5634,0 6.5,1.3333 6.5,3.5c0,2.1667 -0.6218,5.5 -3.5,5.5Zm3,7.0743c-1.31,0.296 -1.5,0.8163 -1.5,1.9492v3.9765c0,1.4131 -0.4316,3 -1,3c-0.5684,0 -0.0537,-3 -1,-3c-0.6041,0 -1.9206,2 -9,2c-7.0794,0 -8.3961,-2 -9,-2c-0.9463,0 -0.4316,3 -1,3c-0.5684,0 -1,-1.5869 -1,-3v-3.9765c0,-1.1329 -0.19,-1.6532 -1.5,-1.9492c-1.0938,-0.2472 -1.5,0.1122 -1.5,1.1992v4.7265c0,4.36 5.2037,10 14,10c8.7963,0 14,-5.64 14,-10v-4.7265c0,-1.087 -0.4062,-1.4464 -1.5,-1.1992Z" fill="#000" fill-rule="evenodd"></path></svg>