<?xml version="1.0" encoding="UTF-8"?><svg version="1.1" viewBox="0 0 64 64" xmlns="http://www.w3.org/2000/svg" xmlns:xlink="http://www.w3.org/1999/xlink"><!--Generated by IJSVG (https://github.com/iconjar/IJSVG)--><path d="M22.01,26.025l-3.91239e-07,-1.89061e-10c0.542675,0.000262237 1.0846,0.04037 1.6214,0.12l4.28441e-07,5.03678e-07c-3.93623,-4.62746 -3.37588,-11.5697 1.25158,-15.5059c4.62746,-3.93623 11.5697,-3.37588 15.5059,1.25158c3.495,4.10875 3.495,10.1456 8.56881e-07,14.2543l-1.12728e-06,1.68792e-07c6.00859,-0.899687 11.6089,3.2419 12.5085,9.25049c0.899687,6.00859 -3.2419,11.6089 -9.25049,12.5085c-3.70447,0.554683 -7.43662,-0.813717 -9.90455,-3.63153l-5.66915e-07,-2.01265e-06c0.895218,3.17819 2.59044,6.07373 4.9237,8.41l1.9188,1.9194l-4.30052e-09,-4.29704e-09c0.325517,0.325253 0.32573,0.852806 0.000477403,1.17832c-0.156318,0.156445 -0.368421,0.244324 -0.589577,0.244277h-15.971l-3.50378e-08,-2.41585e-13c-0.460274,-3.09278e-06 -0.833397,-0.373131 -0.833394,-0.833406c1.48485e-06,-0.220979 0.0877659,-0.432911 0.243994,-0.589194l1.9188,-1.9194l1.04039e-07,-1.04169e-07c2.33334,-2.33626 4.02866,-5.2318 4.924,-8.41l4.79191e-07,-5.46677e-07c-4.00379,4.56766 -10.9523,5.02476 -15.52,1.02098c-4.56766,-4.00379 -5.02476,-10.9523 -1.02098,-15.52c2.08879,-2.38296 5.10391,-3.74916 8.27275,-3.7485Z" fill="#000" fill-rule="evenodd"></path></svg>