<?xml version="1.0" encoding="UTF-8"?><svg version="1.1" viewBox="0 0 64 64" xmlns="http://www.w3.org/2000/svg" xmlns:xlink="http://www.w3.org/1999/xlink"><!--Generated by IJSVG (https://github.com/iconjar/IJSVG)--><path d="M32,56l-1.04907e-06,-2.84217e-14c-13.2548,-5.79387e-07 -24,-10.7452 -24,-24c5.79387e-07,-13.2548 10.7452,-24 24,-24c13.2548,5.79387e-07 24,10.7452 24,24l2.13163e-14,-1.04907e-06c0,13.2548 -10.7452,24 -24,24Zm0,-42l-7.86805e-07,1.77636e-14c-9.94113,4.3454e-07 -18,8.05888 -18,18c4.3454e-07,9.94113 8.05888,18 18,18c9.94113,-4.3454e-07 18,-8.05888 18,-18l1.42109e-14,7.86805e-07c0,-9.94113 -8.05887,-18 -18,-18Zm0,32l-6.11959e-07,-1.42109e-14c-7.73199,-3.37976e-07 -14,-6.26801 -14,-14c3.37976e-07,-7.73199 6.26801,-14 14,-14c7.73199,3.37976e-07 14,6.26801 14,14l1.42109e-14,-6.11959e-07c0,7.73199 -6.26801,14 -14,14Zm0,-22l-3.49691e-07,7.10543e-15c-4.41828,1.93129e-07 -8,3.58172 -8,8c1.93129e-07,4.41828 3.58172,8 8,8c4.41828,-1.93129e-07 8,-3.58172 8,-8l1.42109e-14,3.49691e-07c0,-4.41828 -3.58172,-8 -8,-8Zm0,12l-1.74846e-07,-7.10543e-15c-2.20914,-9.65645e-08 -4,-1.79086 -4,-4c9.65645e-08,-2.20914 1.79086,-4 4,-4c2.20914,9.65645e-08 4,1.79086 4,4l7.10543e-15,-1.74846e-07c0,2.20914 -1.79086,4 -4,4Z" fill="#000" fill-rule="evenodd"></path></svg>