<?xml version="1.0" encoding="UTF-8"?><svg version="1.1" viewBox="0 0 64 64" xmlns="http://www.w3.org/2000/svg" xmlns:xlink="http://www.w3.org/1999/xlink"><!--Generated by IJSVG (https://github.com/iconjar/IJSVG)--><path d="M32,56l-1.04907e-06,-2.84217e-14c-13.2548,-5.79387e-07 -24,-10.7452 -24,-24c5.79387e-07,-13.2548 10.7452,-24 24,-24c13.2548,5.79387e-07 24,10.7452 24,24l2.84217e-14,-1.04907e-06c0,13.2548 -10.7452,24 -24,24Zm3.9624,-29.0082l-2.6956,-8.07l2.28155e-08,6.46285e-08c-0.247242,-0.700352 -1.01542,-1.06767 -1.71577,-0.820429c-0.383453,0.135368 -0.68506,0.436976 -0.820429,0.820429l-2.6956,8.07h-8.698l-1.86765e-08,-5.18821e-10c-0.714657,-0.0198527 -1.31009,0.543397 -1.32995,1.25805c-0.0120627,0.43423 0.194476,0.845562 0.549948,1.09525l7.028,4.9384l-2.5028,7.9714l-3.07901e-08,8.88757e-08c-0.237614,0.685874 0.125772,1.43451 0.811646,1.67212c0.403577,0.139815 0.849927,0.0748037 1.19685,-0.174324l6.908,-4.9727l6.9073,4.9843l7.51824e-08,5.4128e-08c0.589079,0.424111 1.41043,0.290378 1.83454,-0.298702c0.249762,-0.346913 0.315208,-0.79362 0.175457,-1.1976l-2.5035,-7.9869l7.0265,-4.9354l-4.9443e-08,3.47082e-08c0.58515,-0.410766 0.726516,-1.21811 0.315751,-1.80326c-0.249718,-0.355732 -0.66129,-0.562405 -1.09575,-0.550236Z" fill="#000" fill-rule="evenodd"></path></svg>